STARTFONT 2.1
FONT ORIC-ATMOS-ALT
SIZE 16 150 150
COMMENT x 16 0 -8 ... 16 fixed can't do smaller
FONTBOUNDINGBOX 6 16 0 -4
STARTPROPERTIES 3
PIXEL_SIZE 16
FONT_ASCENT 8
FONT_DESCENT 4
ENDPROPERTIES
CHARS 97
STARTCHAR
ENCODING 32
SWIDTH 200 0
DWIDTH 8 0
BBX 6 8 0 0
BITMAP
00
00
00
00
00
00
00
00
ENDCHAR
STARTCHAR
ENCODING 33
SWIDTH 200 0
DWIDTH 8 0
BBX 6 8 0 0
BITMAP
38
38
38
00
00
00
00
00
ENDCHAR
STARTCHAR
ENCODING 34
SWIDTH 200 0
DWIDTH 8 0
BBX 6 8 0 0
BITMAP
07
07
07
00
00
00
00
00
ENDCHAR
STARTCHAR
ENCODING 35
SWIDTH 200 0
DWIDTH 8 0
BBX 6 8 0 0
BITMAP
3f
3f
3f
00
00
00
00
00
ENDCHAR
STARTCHAR
ENCODING 36
SWIDTH 200 0
DWIDTH 8 0
BBX 6 8 0 0
BITMAP
00
00
00
38
38
00
00
00
ENDCHAR
STARTCHAR
ENCODING 37
SWIDTH 200 0
DWIDTH 8 0
BBX 6 8 0 0
BITMAP
38
38
38
38
38
00
00
00
ENDCHAR
STARTCHAR
ENCODING 38
SWIDTH 200 0
DWIDTH 8 0
BBX 6 8 0 0
BITMAP
07
07
07
38
38
00
00
00
ENDCHAR
STARTCHAR
ENCODING 39
SWIDTH 200 0
DWIDTH 8 0
BBX 6 8 0 0
BITMAP
3f
3f
3f
38
38
00
00
00
ENDCHAR
STARTCHAR
ENCODING 40
SWIDTH 200 0
DWIDTH 8 0
BBX 6 8 0 0
BITMAP
00
00
00
07
07
00
00
00
ENDCHAR
STARTCHAR
ENCODING 41
SWIDTH 200 0
DWIDTH 8 0
BBX 6 8 0 0
BITMAP
38
38
38
07
07
00
00
00
ENDCHAR
STARTCHAR
ENCODING 42
SWIDTH 200 0
DWIDTH 8 0
BBX 6 8 0 0
BITMAP
07
07
07
07
07
00
00
00
ENDCHAR
STARTCHAR
ENCODING 43
SWIDTH 200 0
DWIDTH 8 0
BBX 6 8 0 0
BITMAP
3f
3f
3f
07
07
00
00
00
ENDCHAR
STARTCHAR
ENCODING 44
SWIDTH 200 0
DWIDTH 8 0
BBX 6 8 0 0
BITMAP
00
00
00
3f
3f
00
00
00
ENDCHAR
STARTCHAR
ENCODING 45
SWIDTH 200 0
DWIDTH 8 0
BBX 6 8 0 0
BITMAP
38
38
38
3f
3f
00
00
00
ENDCHAR
STARTCHAR
ENCODING 46
SWIDTH 200 0
DWIDTH 8 0
BBX 6 8 0 0
BITMAP
07
07
07
3f
3f
00
00
00
ENDCHAR
STARTCHAR
ENCODING 47
SWIDTH 200 0
DWIDTH 8 0
BBX 6 8 0 0
BITMAP
3f
3f
3f
3f
3f
00
00
00
ENDCHAR
STARTCHAR
ENCODING 48
SWIDTH 200 0
DWIDTH 8 0
BBX 6 8 0 0
BITMAP
00
00
00
00
00
38
38
38
ENDCHAR
STARTCHAR
ENCODING 49
SWIDTH 200 0
DWIDTH 8 0
BBX 6 8 0 0
BITMAP
38
38
38
00
00
38
38
38
ENDCHAR
STARTCHAR
ENCODING 50
SWIDTH 200 0
DWIDTH 8 0
BBX 6 8 0 0
BITMAP
07
07
07
00
00
38
38
38
ENDCHAR
STARTCHAR
ENCODING 51
SWIDTH 200 0
DWIDTH 8 0
BBX 6 8 0 0
BITMAP
3f
3f
3f
00
00
38
38
38
ENDCHAR
STARTCHAR
ENCODING 52
SWIDTH 200 0
DWIDTH 8 0
BBX 6 8 0 0
BITMAP
00
00
00
38
38
38
38
38
ENDCHAR
STARTCHAR
ENCODING 53
SWIDTH 200 0
DWIDTH 8 0
BBX 6 8 0 0
BITMAP
38
38
38
38
38
38
38
38
ENDCHAR
STARTCHAR
ENCODING 54
SWIDTH 200 0
DWIDTH 8 0
BBX 6 8 0 0
BITMAP
07
07
07
38
38
38
38
38
ENDCHAR
STARTCHAR
ENCODING 55
SWIDTH 200 0
DWIDTH 8 0
BBX 6 8 0 0
BITMAP
3f
3f
3f
38
38
38
38
38
ENDCHAR
STARTCHAR
ENCODING 56
SWIDTH 200 0
DWIDTH 8 0
BBX 6 8 0 0
BITMAP
00
00
00
07
07
38
38
38
ENDCHAR
STARTCHAR
ENCODING 57
SWIDTH 200 0
DWIDTH 8 0
BBX 6 8 0 0
BITMAP
38
38
38
07
07
38
38
38
ENDCHAR
STARTCHAR
ENCODING 58
SWIDTH 200 0
DWIDTH 8 0
BBX 6 8 0 0
BITMAP
07
07
07
07
07
38
38
38
ENDCHAR
STARTCHAR
ENCODING 59
SWIDTH 200 0
DWIDTH 8 0
BBX 6 8 0 0
BITMAP
3f
3f
3f
07
07
38
38
38
ENDCHAR
STARTCHAR
ENCODING 60
SWIDTH 200 0
DWIDTH 8 0
BBX 6 8 0 0
BITMAP
00
00
00
3f
3f
38
38
38
ENDCHAR
STARTCHAR
ENCODING 61
SWIDTH 200 0
DWIDTH 8 0
BBX 6 8 0 0
BITMAP
38
38
38
3f
3f
38
38
38
ENDCHAR
STARTCHAR
ENCODING 62
SWIDTH 200 0
DWIDTH 8 0
BBX 6 8 0 0
BITMAP
07
07
07
3f
3f
38
38
38
ENDCHAR
STARTCHAR
ENCODING 63
SWIDTH 200 0
DWIDTH 8 0
BBX 6 8 0 0
BITMAP
3f
3f
3f
3f
3f
38
38
38
ENDCHAR
STARTCHAR
ENCODING 64
SWIDTH 200 0
DWIDTH 8 0
BBX 6 8 0 0
BITMAP
00
00
00
00
00
07
07
07
ENDCHAR
STARTCHAR
ENCODING 65
SWIDTH 200 0
DWIDTH 8 0
BBX 6 8 0 0
BITMAP
38
38
38
00
00
07
07
07
ENDCHAR
STARTCHAR
ENCODING 66
SWIDTH 200 0
DWIDTH 8 0
BBX 6 8 0 0
BITMAP
07
07
07
00
00
07
07
07
ENDCHAR
STARTCHAR
ENCODING 67
SWIDTH 200 0
DWIDTH 8 0
BBX 6 8 0 0
BITMAP
3f
3f
3f
00
00
07
07
07
ENDCHAR
STARTCHAR
ENCODING 68
SWIDTH 200 0
DWIDTH 8 0
BBX 6 8 0 0
BITMAP
00
00
00
38
38
07
07
07
ENDCHAR
STARTCHAR
ENCODING 69
SWIDTH 200 0
DWIDTH 8 0
BBX 6 8 0 0
BITMAP
38
38
38
38
38
07
07
07
ENDCHAR
STARTCHAR
ENCODING 70
SWIDTH 200 0
DWIDTH 8 0
BBX 6 8 0 0
BITMAP
07
07
07
38
38
07
07
07
ENDCHAR
STARTCHAR
ENCODING 71
SWIDTH 200 0
DWIDTH 8 0
BBX 6 8 0 0
BITMAP
3f
3f
3f
38
38
07
07
07
ENDCHAR
STARTCHAR
ENCODING 72
SWIDTH 200 0
DWIDTH 8 0
BBX 6 8 0 0
BITMAP
00
00
00
07
07
07
07
07
ENDCHAR
STARTCHAR
ENCODING 73
SWIDTH 200 0
DWIDTH 8 0
BBX 6 8 0 0
BITMAP
38
38
38
07
07
07
07
07
ENDCHAR
STARTCHAR
ENCODING 74
SWIDTH 200 0
DWIDTH 8 0
BBX 6 8 0 0
BITMAP
07
07
07
07
07
07
07
07
ENDCHAR
STARTCHAR
ENCODING 75
SWIDTH 200 0
DWIDTH 8 0
BBX 6 8 0 0
BITMAP
3f
3f
3f
07
07
07
07
07
ENDCHAR
STARTCHAR
ENCODING 76
SWIDTH 200 0
DWIDTH 8 0
BBX 6 8 0 0
BITMAP
00
00
00
3f
3f
07
07
07
ENDCHAR
STARTCHAR
ENCODING 77
SWIDTH 200 0
DWIDTH 8 0
BBX 6 8 0 0
BITMAP
38
38
38
3f
3f
07
07
07
ENDCHAR
STARTCHAR
ENCODING 78
SWIDTH 200 0
DWIDTH 8 0
BBX 6 8 0 0
BITMAP
07
07
07
3f
3f
07
07
07
ENDCHAR
STARTCHAR
ENCODING 79
SWIDTH 200 0
DWIDTH 8 0
BBX 6 8 0 0
BITMAP
3f
3f
3f
3f
3f
07
07
07
ENDCHAR
STARTCHAR
ENCODING 80
SWIDTH 200 0
DWIDTH 8 0
BBX 6 8 0 0
BITMAP
00
00
00
00
00
3f
3f
3f
ENDCHAR
STARTCHAR
ENCODING 81
SWIDTH 200 0
DWIDTH 8 0
BBX 6 8 0 0
BITMAP
38
38
38
00
00
3f
3f
3f
ENDCHAR
STARTCHAR
ENCODING 82
SWIDTH 200 0
DWIDTH 8 0
BBX 6 8 0 0
BITMAP
07
07
07
00
00
3f
3f
3f
ENDCHAR
STARTCHAR
ENCODING 83
SWIDTH 200 0
DWIDTH 8 0
BBX 6 8 0 0
BITMAP
3f
3f
3f
00
00
3f
3f
3f
ENDCHAR
STARTCHAR
ENCODING 84
SWIDTH 200 0
DWIDTH 8 0
BBX 6 8 0 0
BITMAP
00
00
00
38
38
3f
3f
3f
ENDCHAR
STARTCHAR
ENCODING 85
SWIDTH 200 0
DWIDTH 8 0
BBX 6 8 0 0
BITMAP
38
38
38
38
38
3f
3f
3f
ENDCHAR
STARTCHAR
ENCODING 86
SWIDTH 200 0
DWIDTH 8 0
BBX 6 8 0 0
BITMAP
07
07
07
38
38
3f
3f
3f
ENDCHAR
STARTCHAR
ENCODING 87
SWIDTH 200 0
DWIDTH 8 0
BBX 6 8 0 0
BITMAP
3f
3f
3f
38
38
3f
3f
3f
ENDCHAR
STARTCHAR
ENCODING 88
SWIDTH 200 0
DWIDTH 8 0
BBX 6 8 0 0
BITMAP
00
00
00
07
07
3f
3f
3f
ENDCHAR
STARTCHAR
ENCODING 89
SWIDTH 200 0
DWIDTH 8 0
BBX 6 8 0 0
BITMAP
38
38
38
07
07
3f
3f
3f
ENDCHAR
STARTCHAR
ENCODING 90
SWIDTH 200 0
DWIDTH 8 0
BBX 6 8 0 0
BITMAP
07
07
07
07
07
3f
3f
3f
ENDCHAR
STARTCHAR
ENCODING 91
SWIDTH 200 0
DWIDTH 8 0
BBX 6 8 0 0
BITMAP
3f
3f
3f
07
07
3f
3f
3f
ENDCHAR
STARTCHAR
ENCODING 92
SWIDTH 200 0
DWIDTH 8 0
BBX 6 8 0 0
BITMAP
00
00
00
3f
3f
3f
3f
3f
ENDCHAR
STARTCHAR
ENCODING 93
SWIDTH 200 0
DWIDTH 8 0
BBX 6 8 0 0
BITMAP
38
38
38
3f
3f
3f
3f
3f
ENDCHAR
STARTCHAR
ENCODING 94
SWIDTH 200 0
DWIDTH 8 0
BBX 6 8 0 0
BITMAP
07
07
07
3f
3f
3f
3f
3f
ENDCHAR
STARTCHAR
ENCODING 95
SWIDTH 200 0
DWIDTH 8 0
BBX 6 8 0 0
BITMAP
3f
3f
3f
3f
3f
3f
3f
3f
ENDCHAR
STARTCHAR
ENCODING 96
SWIDTH 200 0
DWIDTH 8 0
BBX 6 8 0 0
BITMAP
2F
3b
3f
2b
3f
3f
3f
2F
ENDCHAR
STARTCHAR
ENCODING 97
SWIDTH 200 0
DWIDTH 8 0
BBX 6 8 0 0
BITMAP
2F
3f
3f
3f
2d
37
3f
2F
ENDCHAR
STARTCHAR
ENCODING 98
SWIDTH 200 0
DWIDTH 8 0
BBX 6 8 0 0
BITMAP
2F
3d
3f
3f
31
3f
2d
2F
ENDCHAR
STARTCHAR
ENCODING 99
SWIDTH 200 0
DWIDTH 8 0
BBX 6 8 0 0
BITMAP
2F
3f
3d
27
3f
33
3b
2F
ENDCHAR
STARTCHAR
ENCODING 100
SWIDTH 200 0
DWIDTH 8 0
BBX 6 8 0 0
BITMAP
2F
37
33
37
3d
37
37
2F
ENDCHAR
STARTCHAR
ENCODING 101
SWIDTH 200 0
DWIDTH 8 0
BBX 6 8 0 0
BITMAP
2F
3d
3f
3f
35
33
2b
2F
ENDCHAR
STARTCHAR
ENCODING 102
SWIDTH 200 0
DWIDTH 8 0
BBX 6 8 0 0
BITMAP
2F
27
3f
3f
3f
3b
2d
2F
ENDCHAR
STARTCHAR
ENCODING 103
SWIDTH 200 0
DWIDTH 8 0
BBX 6 8 0 0
BITMAP
2F
3f
2d
2b
37
37
2f
2F
ENDCHAR
STARTCHAR
ENCODING 104
SWIDTH 200 0
DWIDTH 8 0
BBX 6 8 0 0
BITMAP
2F
3b
2f
3d
35
2f
29
2F
ENDCHAR
STARTCHAR
ENCODING 105
SWIDTH 200 0
DWIDTH 8 0
BBX 6 8 0 0
BITMAP
2F
35
37
2b
39
39
3f
2F
ENDCHAR
STARTCHAR
ENCODING 106
SWIDTH 200 0
DWIDTH 8 0
BBX 6 8 0 0
BITMAP
2F
3f
37
35
39
3f
2b
2F
ENDCHAR
STARTCHAR
ENCODING 107
SWIDTH 200 0
DWIDTH 8 0
BBX 6 8 0 0
BITMAP
2F
3f
3d
3d
2f
2f
37
2F
ENDCHAR
STARTCHAR
ENCODING 108
SWIDTH 200 0
DWIDTH 8 0
BBX 6 8 0 0
BITMAP
2F
3f
33
3b
3d
3f
2f
2F
ENDCHAR
STARTCHAR
ENCODING 109
SWIDTH 200 0
DWIDTH 8 0
BBX 6 8 0 0
BITMAP
2F
3f
33
31
3f
33
3f
2F
ENDCHAR
STARTCHAR
ENCODING 110
SWIDTH 200 0
DWIDTH 8 0
BBX 6 8 0 0
BITMAP
2F
2f
2b
3f
37
37
2b
2F
ENDCHAR
STARTCHAR
ENCODING 111
SWIDTH 200 0
DWIDTH 8 0
BBX 6 8 0 0
BITMAP
2F
37
3f
3b
25
3f
2f
2F
ENDCHAR
STARTCHAR
ENCODING 112
SWIDTH 200 0
DWIDTH 8 0
BBX 6 8 0 0
BITMAP
00
00
00
00
00
00
00
00
ENDCHAR
STARTCHAR
ENCODING 113
SWIDTH 200 0
DWIDTH 8 0
BBX 6 8 0 0
BITMAP
00
00
00
00
00
00
00
00
ENDCHAR
STARTCHAR
ENCODING 114
SWIDTH 200 0
DWIDTH 8 0
BBX 6 8 0 0
BITMAP
00
00
00
00
00
00
00
00
ENDCHAR
STARTCHAR
ENCODING 115
SWIDTH 200 0
DWIDTH 8 0
BBX 6 8 0 0
BITMAP
00
00
00
00
00
00
00
00
ENDCHAR
STARTCHAR
ENCODING 116
SWIDTH 200 0
DWIDTH 8 0
BBX 6 8 0 0
BITMAP
00
00
00
00
00
00
00
00
ENDCHAR
STARTCHAR
ENCODING 117
SWIDTH 200 0
DWIDTH 8 0
BBX 6 8 0 0
BITMAP
00
00
00
00
00
00
00
00
ENDCHAR
STARTCHAR
ENCODING 118
SWIDTH 200 0
DWIDTH 8 0
BBX 6 8 0 0
BITMAP
00
00
00
00
00
00
00
00
ENDCHAR
STARTCHAR
ENCODING 119
SWIDTH 200 0
DWIDTH 8 0
BBX 6 8 0 0
BITMAP
00
00
00
00
00
00
00
00
ENDCHAR
STARTCHAR
ENCODING 120
SWIDTH 200 0
DWIDTH 8 0
BBX 6 8 0 0
BITMAP
00
00
00
00
00
00
00
00
ENDCHAR
STARTCHAR
ENCODING 121
SWIDTH 200 0
DWIDTH 8 0
BBX 6 8 0 0
BITMAP
00
00
00
00
00
00
00
00
ENDCHAR
STARTCHAR
ENCODING 122
SWIDTH 200 0
DWIDTH 8 0
BBX 6 8 0 0
BITMAP
00
00
00
00
00
00
00
00
ENDCHAR
STARTCHAR
ENCODING 123
SWIDTH 200 0
DWIDTH 8 0
BBX 6 8 0 0
BITMAP
00
00
00
00
00
00
00
00
ENDCHAR
STARTCHAR
ENCODING 124
SWIDTH 200 0
DWIDTH 8 0
BBX 6 8 0 0
BITMAP
00
00
00
00
00
00
00
00
ENDCHAR
STARTCHAR
ENCODING 125
SWIDTH 200 0
DWIDTH 8 0
BBX 6 8 0 0
BITMAP
00
00
00
00
00
00
00
00
ENDCHAR
STARTCHAR
ENCODING 126
SWIDTH 200 0
DWIDTH 8 0
BBX 6 8 0 0
BITMAP
00
00
00
00
00
00
00
00
ENDCHAR
STARTCHAR
ENCODING 127
SWIDTH 200 0
DWIDTH 8 0
BBX 6 8 0 0
BITMAP
00
00
00
00
00
00
00
00
ENDCHAR
STARTCHAR
ENCODING 160
SWIDTH 200 0
DWIDTH 8 0
BBX 6 8 0 0
BITMAP
00
00
00
00
00
00
00
00
ENDCHAR
ENDFONT
